<?xml version="1.0" encoding="UTF-8" standalone="no"?>
<!DOCTYPE svg PUBLIC "-//W3C//DTD SVG 1.1//EN" "http://www.w3.org/Graphics/SVG/1.1/DTD/svg11.dtd">
<svg width="100%" height="100%" viewBox="0 0 256 256" version="1.1" xmlns="http://www.w3.org/2000/svg" xmlns:xlink="http://www.w3.org/1999/xlink" xml:space="preserve" xmlns:serif="http://www.serif.com/" style="fill-rule:evenodd;clip-rule:evenodd;stroke-linejoin:round;stroke-miterlimit:2;">
    <g transform="matrix(-0.999831,3.67332e-16,-3.67332e-16,-0.999831,382.325,639.892)">
        <path d="M350.212,427.162C370.23,449.757 382.389,479.47 382.389,512C382.389,570.557 342.99,619.984 289.277,635.196L265.02,535.71C262.729,526.203 260.725,516.267 259.007,505.901C257.289,495.535 255.685,484.968 254.196,474.201C252.707,484.854 251.189,495.363 249.643,505.729C248.097,516.095 246.178,526.089 243.887,535.71L219.466,635.198C165.749,619.989 126.346,570.56 126.346,512C126.346,479.502 138.481,449.817 158.463,427.231L170.008,483.307C172.528,495.449 174.819,508.707 176.881,523.082C178.942,537.457 180.889,551.746 182.722,565.949C184.898,551.746 187.132,537.457 189.423,523.082C191.714,508.707 194.234,495.449 196.983,483.307L218.502,389.079C229.159,385.97 240.39,384.211 251.995,384L256.74,384C268.346,384.211 279.576,385.97 290.234,389.079L311.753,483.307C314.502,495.334 316.993,508.478 319.227,522.738C321.46,536.999 323.665,551.173 325.842,565.262C327.789,551.173 329.765,536.999 331.769,522.738C333.774,508.478 336.036,495.334 338.556,483.307L350.212,427.162Z" style="fill:rgb(0,132,209);"/>
    </g>
</svg>
